<?xml version="1.0" standalone="no"?>
<!DOCTYPE svg PUBLIC "-//W3C//DTD SVG 20010904//EN"
 "http://www.w3.org/TR/2001/REC-SVG-20010904/DTD/svg10.dtd">
<svg version="1.0" xmlns="http://www.w3.org/2000/svg"
 width="236.000000pt" height="236.000000pt" viewBox="0 0 236.000000 236.000000"
 preserveAspectRatio="xMidYMid meet">
<metadata>
Created by potrace 1.11, written by Peter Selinger 2001-2013
</metadata>
<g transform="translate(0.000000,236.000000) scale(0.100000,-0.100000)"
fill="#000000" stroke="none">
<path d="M989 2356 c-2 -2 -36 -7 -75 -10 -39 -4 -80 -8 -90 -10 -11 -2 -41
-7 -69 -10 -225 -32 -648 -177 -707 -242 -55 -62 -1 -174 84 -174 19 0 31 -16
68 -88 25 -48 85 -162 133 -253 47 -91 84 -169 81 -172 -3 -3 -6 -31 -6 -63 0
-109 51 -198 146 -255 56 -34 47 -20 188 -289 75 -143 136 -260 210 -400 25
-47 80 -151 122 -232 43 -81 82 -150 87 -154 5 -3 18 -3 28 1 19 6 42 46 224
395 48 92 83 146 109 169 48 41 80 102 82 155 2 38 52 144 221 461 18 33 65
123 105 200 40 77 86 165 103 195 16 30 61 117 101 192 60 117 75 138 94 138
43 0 100 44 103 79 7 76 -14 105 -115 151 -188 87 -476 170 -671 194 -27 4
-66 9 -85 12 -39 6 -465 15 -471 10z"/>
</g>
</svg>
